<?xml version="1.0" encoding="UTF-8"?>
<svg xmlns="http://www.w3.org/2000/svg" xmlns:xlink="http://www.w3.org/1999/xlink" width="640px" height="480px" viewBox="0 0 320 240" version="1.1">
<g id="surface1">
<path style=" stroke:none;fill-rule:nonzero;fill:rgb(0%,61.568627%,100%);fill-opacity:0.568627;" d="M 188.296875 81.332031 C 146.570312 39.15625 127.085938 48.675781 129.847656 109.882812 "/>
<path style=" stroke:none;fill-rule:nonzero;fill:rgb(0%,61.568627%,100%);fill-opacity:0.619608;" d="M 171.398438 119.699219 C 171.398438 130.304688 162.804688 138.898438 152.199219 138.898438 C 141.597656 138.898438 133 130.304688 133 119.699219 C 133 109.097656 141.597656 100.5 152.199219 100.5 C 162.804688 100.5 171.398438 109.097656 171.398438 119.699219 Z M 171.398438 119.699219 "/>
<path style="fill-rule:nonzero;fill:rgb(0%,0%,0%);fill-opacity:1;stroke-width:10;stroke-linecap:butt;stroke-linejoin:miter;stroke:rgb(12.156863%,45.098039%,71.372549%);stroke-opacity:1;stroke-miterlimit:4;" d="M -3.003278 -89.496927 L 3.003946 89.496697 " transform="matrix(0.49,-0.065,0.065,0.49,123.41,105.92)"/>
<path style="fill-rule:nonzero;fill:rgb(0%,0%,0%);fill-opacity:1;stroke-width:10;stroke-linecap:square;stroke-linejoin:miter;stroke:rgb(3.529412%,46.666667%,54.509804%);stroke-opacity:1;stroke-dasharray:15,15;stroke-miterlimit:4;" d="M -82.5 14.5 L 82.5 -14.5 " transform="matrix(0.5,0,0,0.5,176,146.75)"/>
<path style="fill:none;stroke-width:2;stroke-linecap:butt;stroke-linejoin:miter;stroke:rgb(0%,0%,0%);stroke-opacity:1;stroke-miterlimit:4;" d="M 0 0 L 0 0 " transform="matrix(0.5,0,0,0.5,157.25,149)"/>
</g>
</svg>
